<svg width="126" height="128" viewBox="0 0 126 128" fill="none" xmlns="http://www.w3.org/2000/svg">
<path fill-rule="evenodd" clip-rule="evenodd" d="M63.3048 1.04667C80.6066 1.05201 96.2638 8.104 107.604 19.5C118.944 30.9033 125.96 46.656 125.96 64.0547C125.96 81.4533 118.944 97.2033 107.604 108.607C96.2638 120.008 80.5933 127.06 63.2849 127.06C45.9831 127.06 30.3128 120.008 18.9728 108.607C7.6262 97.2033 0.609863 81.4533 0.609863 64.0547C0.609863 51.9087 4.03182 40.568 9.95382 30.948C10.7297 30.388 11.5521 30.3127 12.4871 30.3127H12.9646C6.54521 39.966 2.80495 51.57 2.80495 64.0547C2.80495 80.844 9.56914 96.0467 20.5179 107.049C31.4666 118.052 46.5866 124.859 63.2849 124.859C79.9899 124.859 95.1099 118.052 106.059 107.049C117.001 96.0467 123.772 80.844 123.772 64.0547C123.772 47.6513 117.312 32.7653 106.808 21.828C115.257 31.9427 120.35 44.992 120.35 59.2367C120.35 68.5413 118.135 77.57 114.05 85.638C109.965 93.7033 104.01 100.813 96.5291 106.289V106.291C81.25 117.555 58.8419 119.195 42.1568 110.19C35.6711 106.69 30.4519 101.963 26.9438 95.6694C23.4092 89.3414 21.6585 82.068 21.6585 73.8073C21.6585 65.5467 23.3496 58.2394 26.7118 51.9454C30.1006 45.6487 34.8686 40.768 41.1023 37.302C47.3095 33.836 54.5511 32.104 62.7676 32.104C70.8117 32.104 77.8744 33.7787 83.9953 37.07C90.1163 40.3933 94.8777 45.018 98.2466 50.9033C100.415 54.6927 101.688 58.3487 102.405 62.1147C103.127 65.88 103.3 69.7473 103.3 73.94L95.8859 73.914L88.465 73.8907L81.0509 73.8647L73.6369 73.8414C73.4048 73.8594 73.1462 74.026 73.0003 74.2393L72.3768 75.4947V75.4867L70.9909 78.3387C70.6195 79.1093 69.6844 79.7393 68.9151 79.7393H63.6099H56.733C55.7316 79.7393 54.8429 79.8227 54.014 80.4533H53.782L54.1268 79.7393L56.2224 75.4347C56.6004 74.6667 57.5287 74.0367 58.298 74.0367H63.6099H70.4869C71.4816 74.0367 72.357 73.9533 73.1793 73.3387C77.145 69.5653 72.5825 48.0574 71.3026 44.206C69.1473 37.7347 66.3023 34.5 62.7676 34.5C59.233 34.5 56.3616 37.6774 54.1798 44.0027C51.9648 50.3567 50.7314 58.9034 50.4131 69.706V71.9867V73.7787C50.4131 81.2867 51.4476 87.8727 53.5166 93.5027C55.5857 99.164 58.4836 103.555 62.2769 106.643C66.0436 109.763 70.3807 111.294 75.2616 111.294C78.7962 111.294 82.6227 110.555 86.7276 109.041C88.286 108.463 92.8154 106.099 95.3288 104.443H95.3354C102.491 99.1847 108.187 92.37 112.1 84.6407C116.033 76.8773 118.161 68.1927 118.161 59.2367C118.161 43.7733 111.928 29.776 101.848 19.6434C91.9467 9.69002 78.3386 3.46598 63.2849 3.24732C56.534 3.24998 50.0417 4.36201 43.9805 6.41134L43.8809 6.448V6.44536C34.9813 9.47402 27.0168 14.526 20.5179 21.0573C20.2659 21.3073 20.0206 21.56 19.7752 21.8154L17.8123 25.8513C17.4542 26.5887 16.5589 27.1927 15.8228 27.1927H10.7363H4.14455C3.18297 27.1927 2.34081 27.2733 1.54502 27.8773H1.31949L1.6577 27.1927L3.66045 23.07C4.01856 22.3307 4.91382 21.7293 5.64993 21.7293H10.7363H16.8572C17.5469 20.9687 18.25 20.2267 18.9728 19.5C25.7901 12.6407 34.1856 7.35666 43.556 4.23466C46.5269 3.20066 49.5774 2.41401 52.6678 1.88001C55.904 1.32267 59.18 1.04134 62.4626 1.04134C62.7411 1.04134 63.0263 1.04401 63.3048 1.04667Z" fill="#D6B369"/>
</svg>
